<svg width="9" height="12" viewBox="0 0 9 12" fill="none" xmlns="http://www.w3.org/2000/svg">
<path d="M5 1C5 0.723858 4.77614 0.5 4.5 0.5C4.22386 0.5 4 0.723858 4 1L5 1ZM4.14645 11.3536C4.34171 11.5488 4.65829 11.5488 4.85355 11.3536L8.03553 8.17157C8.2308 7.97631 8.2308 7.65973 8.03553 7.46447C7.84027 7.2692 7.52369 7.2692 7.32843 7.46447L4.5 10.2929L1.67157 7.46447C1.47631 7.2692 1.15973 7.2692 0.964466 7.46447C0.769204 7.65973 0.769204 7.97631 0.964466 8.17157L4.14645 11.3536ZM4 1L4 11L5 11L5 1L4 1Z" fill="#2D9DCF"/>
</svg>
