<svg width="111" height="33" viewBox="0 0 111 33" fill="none" xmlns="http://www.w3.org/2000/svg">
<path d="M16.1919 1.48287C16.5138 0.831231 17.0396 0.831231 17.3616 1.48287L21.4199 9.70552C21.7418 10.3572 22.5936 10.9762 23.3125 11.0808L32.3865 12.4025C33.1061 12.5068 33.2688 13.0079 32.7481 13.5153L26.1816 19.9157C25.6609 20.4231 25.3357 21.4243 25.4586 22.1409L27.0083 31.178C27.1313 31.8943 26.705 32.2038 26.0619 31.866L17.9462 27.596C17.3026 27.2575 16.2497 27.2575 15.6061 27.596L7.49097 31.8624C6.84737 32.2009 6.42183 31.8915 6.54455 31.1744L8.09446 22.1373C8.21742 21.421 7.89219 20.4191 7.37152 19.9121L0.805005 13.5118C0.284348 13.0043 0.446728 12.504 1.16659 12.3989L10.2406 11.0772C10.9602 10.9729 11.812 10.3536 12.1332 9.70195L16.1919 1.48287Z" fill="#FFC12C"/>
<path d="M55.0536 1.48287C55.3756 0.831231 55.9014 0.831231 56.2233 1.48287L60.2817 9.70552C60.6036 10.3572 61.4554 10.9762 62.1743 11.0808L71.2483 12.4025C71.9679 12.5068 72.1305 13.0079 71.6098 13.5153L65.0433 19.9157C64.5227 20.4231 64.1974 21.4243 64.3204 22.1409L65.8701 31.178C65.993 31.8943 65.5668 32.2038 64.9236 31.866L56.8079 27.596C56.1643 27.2575 55.1114 27.2575 54.4678 27.596L46.3527 31.8624C45.7091 32.2009 45.2836 31.8915 45.4063 31.1744L46.9562 22.1373C47.0792 21.421 46.7539 20.4191 46.2333 19.9121L39.6668 13.5118C39.1461 13.0043 39.3085 12.504 40.0283 12.3989L49.1023 11.0772C49.8219 10.9729 50.6737 10.3536 50.9949 9.70195L55.0536 1.48287Z" fill="#FFC12C"/>
<path d="M93.9154 1.48287C94.2373 0.831231 94.7632 0.831231 95.0851 1.48287L99.1434 9.70552C99.4653 10.3572 100.317 10.9762 101.036 11.0808L110.11 12.4025C110.83 12.5068 110.992 13.0079 110.472 13.5153L103.905 19.9157C103.384 20.4231 103.059 21.4243 103.182 22.1409L104.732 31.178C104.855 31.8943 104.429 32.2038 103.785 31.866L95.6697 27.596C95.0261 27.2575 93.9732 27.2575 93.3296 27.596L85.2145 31.8624C84.5709 32.2009 84.1453 31.8915 84.2681 31.1744L85.818 22.1373C85.9409 21.421 85.6157 20.4191 85.095 19.9121L78.5285 13.5118C78.0079 13.0043 78.1702 12.504 78.8901 12.3989L87.9641 11.0772C88.6837 10.9729 89.5355 10.3536 89.8567 9.70195L93.9154 1.48287Z" fill="#FFC12C"/>
</svg>
