<svg width="40" height="40" viewBox="0 0 40 40" fill="none" xmlns="http://www.w3.org/2000/svg">
<path d="M21.6667 23.333L16.6667 18.333M25.0172 5.83301V3.33301M31.5828 8.43411L33.3506 6.66634M31.5828 21.6663L33.3506 23.4341M18.3506 8.43411L16.5828 6.66634M34.1839 14.9997H36.6839M10.2189 34.7807L25.6144 19.3853C26.2744 18.7253 26.6044 18.3953 26.7281 18.0147C26.8368 17.68 26.8368 17.3194 26.7281 16.9846C26.6044 16.6041 26.2744 16.2741 25.6144 15.6141L24.3856 14.3853C23.7256 13.7253 23.3956 13.3953 23.015 13.2716C22.6803 13.1628 22.3197 13.1628 21.985 13.2716C21.6044 13.3953 21.2744 13.7253 20.6144 14.3853L5.21894 29.7807C4.55892 30.4408 4.2289 30.7708 4.10525 31.1513C3.99649 31.4861 3.99649 31.8466 4.10525 32.1814C4.2289 32.5619 4.55892 32.8919 5.21894 33.552L6.44771 34.7807C7.10774 35.4408 7.43775 35.7708 7.8183 35.8944C8.15304 36.0032 8.51362 36.0032 8.84835 35.8944C9.2289 35.7708 9.55892 35.4408 10.2189 34.7807Z" stroke="#2D9DCF" stroke-width="3" stroke-linecap="round" stroke-linejoin="round"/>
</svg>
