<svg width="39" height="39" viewBox="0 0 39 39" fill="none" xmlns="http://www.w3.org/2000/svg">
<path d="M20.9186 11.5977L19.1523 8.06519C18.6439 7.04851 18.3898 6.54014 18.0106 6.16875C17.6752 5.84031 17.2711 5.59053 16.8273 5.43748C16.3256 5.2644 15.7572 5.2644 14.6205 5.2644H8.56856C6.79506 5.2644 5.90831 5.2644 5.23092 5.60955C4.63508 5.91315 4.15064 6.39759 3.84704 6.99343C3.50189 7.67082 3.50189 8.55757 3.50189 10.3311V11.5977M3.50189 11.5977H27.5686C30.2288 11.5977 31.5589 11.5977 32.575 12.1155C33.4688 12.5709 34.1954 13.2975 34.6508 14.1913C35.1686 15.2074 35.1686 16.5375 35.1686 19.1977V26.1644C35.1686 28.8247 35.1686 30.1548 34.6508 31.1709C34.1954 32.0646 33.4688 32.7913 32.575 33.2467C31.5589 33.7644 30.2288 33.7644 27.5686 33.7644H11.1019C8.44164 33.7644 7.11152 33.7644 6.09544 33.2467C5.20167 32.7913 4.47501 32.0646 4.01961 31.1709C3.50189 30.1548 3.50189 28.8247 3.50189 26.1644V11.5977Z" stroke="#2D9DCF" stroke-width="2" stroke-linecap="round" stroke-linejoin="round"/>
</svg>
