<svg width="154" height="38" viewBox="0 0 154 38" fill="none" xmlns="http://www.w3.org/2000/svg">
<path d="M9.49245 5.44623C9.49245 4.80593 9.49245 4.48579 9.58576 4.22943C9.74217 3.79968 10.0807 3.46115 10.5105 3.30473C10.7668 3.21143 11.087 3.21143 11.7273 3.21143H25.8237C26.464 3.21143 26.7841 3.21143 27.0405 3.30473C27.4702 3.46115 27.8088 3.79968 27.9652 4.22943C28.0585 4.48579 28.0585 4.80593 28.0585 5.44623V14.0416C28.0585 19.1685 23.9023 23.3246 18.7755 23.3246C13.6486 23.3246 9.49245 19.1685 9.49245 14.0416V5.44623Z" fill="#FFD35E"/>
<path d="M11.0396 33.4672C11.0396 30.429 13.5025 27.9661 16.5407 27.9661H21.0103C24.0484 27.9661 26.5113 30.429 26.5113 33.4672C26.5113 33.847 26.2035 34.1548 25.8237 34.1548H11.7273C11.3475 34.1548 11.0396 33.847 11.0396 33.4672Z" fill="#FFD35E"/>
<path d="M18.7755 23.3246C13.6486 23.3246 9.49245 19.1685 9.49245 14.0416V5.44623C9.49245 4.80593 9.49245 4.48579 9.58576 4.22943C9.74217 3.79968 10.0807 3.46115 10.5105 3.30473C10.7668 3.21143 11.087 3.21143 11.7273 3.21143H25.8237C26.464 3.21143 26.7841 3.21143 27.0405 3.30473C27.4702 3.46115 27.8088 3.79968 27.9652 4.22943C28.0585 4.48579 28.0585 4.80593 28.0585 5.44623V14.0416C28.0585 19.1685 23.9023 23.3246 18.7755 23.3246ZM18.7755 23.3246V27.9661M28.0585 6.30577H31.9264C32.6473 6.30577 33.0077 6.30577 33.2921 6.42354C33.6712 6.58056 33.9724 6.88176 34.1294 7.26086C34.2472 7.54518 34.2472 7.90563 34.2472 8.62652V9.4001C34.2472 10.8389 34.2472 11.5583 34.089 12.1486C33.6598 13.7503 32.4087 15.0014 30.807 15.4306C30.2167 15.5888 29.4973 15.5888 28.0585 15.5888M9.49245 6.30577H5.62453C4.90364 6.30577 4.54319 6.30577 4.25887 6.42354C3.87977 6.58056 3.57857 6.88176 3.42154 7.26086C3.30377 7.54518 3.30377 7.90563 3.30377 8.62652V9.4001C3.30377 10.8389 3.30377 11.5583 3.46193 12.1486C3.89111 13.7503 5.14222 15.0014 6.74397 15.4306C7.33422 15.5888 8.05363 15.5888 9.49245 15.5888M11.7273 34.1548H25.8237C26.2035 34.1548 26.5113 33.847 26.5113 33.4672C26.5113 30.429 24.0484 27.9661 21.0103 27.9661H16.5407C13.5025 27.9661 11.0396 30.429 11.0396 33.4672C11.0396 33.847 11.3475 34.1548 11.7273 34.1548Z" stroke="#FFD35E" stroke-width="3.09434" stroke-linecap="round" stroke-linejoin="round"/>
<path d="M85.657 5.72485C85.8549 5.76056 86.05 5.81032 86.2409 5.87375C86.6163 6.00014 86.9588 6.20853 87.2437 6.48378C87.3991 6.628 87.5398 6.78729 87.6637 6.95932C87.8591 7.22031 88.0603 7.49303 88.1072 7.8789C88.1142 7.93654 88.1163 7.98031 88.1163 7.99312V29.4152C88.1163 29.5977 88.0437 29.7888 87.9759 29.9607C87.9023 30.1523 87.795 30.3311 87.7022 30.5152C87.6093 30.6938 87.4952 30.8605 87.3622 31.0115C87.1877 31.2139 86.9908 31.3956 86.7751 31.5533C86.7153 31.5981 86.6646 31.6333 86.6294 31.66L86.465 31.7193C86.1352 31.8399 86.1448 31.8383 86.1144 31.8463C85.9718 31.8836 85.8251 31.9024 85.6778 31.9023C77.0655 31.9137 68.453 31.9148 59.8403 31.9055C59.7974 31.9049 59.7547 31.9002 59.7127 31.8916C59.5925 31.875 59.474 31.8473 59.3589 31.8089C59.2959 31.7881 59.2222 31.7555 59.0755 31.6894C58.9543 31.636 58.8935 31.6088 58.8401 31.5826C58.6946 31.5032 58.5594 31.406 58.4377 31.2934C58.1504 31.0328 57.8982 30.7361 57.6873 30.4106C57.6499 30.3508 57.6238 30.3039 57.6008 30.2612C57.519 30.1048 57.4563 29.9393 57.414 29.768C57.414 29.768 57.3906 29.6725 57.3756 29.5764C57.3025 29.1067 57.3697 20.4676 57.3692 18.2724C57.3692 14.92 57.3706 11.5677 57.3735 8.21568C57.3735 8.04649 57.4386 7.8693 57.5058 7.70972C57.6126 7.45354 57.7166 7.18508 57.8794 6.96572C58.1159 6.64977 58.3635 6.34128 58.7414 6.15128C58.9175 6.06268 59.0803 5.93193 59.2751 5.86841C59.4396 5.80861 59.6094 5.76429 59.7821 5.73605C61.5161 5.46653 82.6607 5.27279 85.657 5.72485ZM75.2069 26.4659V26.4723H80.8888C81.5362 26.4723 82.1836 26.4691 82.8304 26.4723C82.9825 26.4723 83.0487 26.4344 83.0525 26.2669C83.0603 25.8351 82.9907 25.4054 82.847 24.9982C82.6516 24.4394 82.2908 23.9532 81.8126 23.6042C81.3147 23.2306 80.7415 23.0134 80.1048 23.0134H68.5569C68.0765 23.0134 67.6576 22.8719 67.3256 22.5154C67.055 22.224 66.9408 21.8691 66.9402 21.4795C66.9365 19.9264 66.9333 18.3727 66.944 16.8196C66.9456 16.5511 66.9851 16.2841 67.0614 16.0265C67.2178 15.5104 67.7819 15.1192 68.2841 15.116C71.5138 15.1107 74.7431 15.1121 77.9721 15.1203C78.2267 15.1251 78.4777 15.1817 78.7097 15.2868C78.9133 15.3744 79.0901 15.5143 79.222 15.6925C79.3539 15.8706 79.4362 16.0805 79.4606 16.3009C79.5177 16.7503 79.4889 17.2082 79.5113 17.6634C79.5294 18.028 79.5348 18.3973 79.6052 18.7533C79.7488 19.4882 80.1758 20.0507 80.7628 20.4942C81.3659 20.949 82.0566 21.0904 82.7989 21.0616C82.9927 21.0541 83.0525 21.0039 83.0519 20.8059C83.0439 19.2187 83.0573 17.6309 83.0407 16.0436C83.0408 15.6247 82.9899 15.2073 82.8891 14.8006C82.6036 13.714 81.9818 12.8424 81.0606 12.1972C80.3594 11.7067 79.5663 11.4147 78.7203 11.4067C75.9888 11.3822 73.2567 11.3886 70.5247 11.4035C69.4172 11.4099 68.3065 11.3197 67.2018 11.4697C66.7494 11.5342 66.3117 11.6773 65.9086 11.8924C64.878 12.4145 64.0847 13.309 63.6894 14.3945C63.485 14.9356 63.4124 15.5083 63.4033 16.081C63.3847 17.1778 63.3927 18.2751 63.3991 19.3718C63.4044 20.324 63.4124 21.2772 63.4391 22.2293C63.4567 22.748 63.5762 23.2581 63.7908 23.7307C64.2056 24.6942 64.9411 25.4845 65.8723 25.9674C66.4129 26.253 66.9931 26.4547 67.6015 26.4595C70.1382 26.4777 72.6728 26.4659 75.2069 26.4659Z" fill="#2D9DCF"/>
<path d="M97.1587 16.5632V16.1229C97.1587 13.988 98.4572 13.3716 102.881 13.3716C106.337 13.3716 107.524 13.6134 108.384 14.5159C109.088 15.2204 109.242 15.9035 109.242 18.3239V23.6946H107.635L107.658 22.5061H107.592C106.822 23.6066 106.073 23.8265 102.969 23.8265C99.3154 23.8265 98.3473 23.6946 97.5985 23.1225C96.9383 22.5941 96.7184 21.9777 96.7184 20.7453C96.7184 19.1383 97.1144 18.3436 98.1712 17.9498C98.7876 17.7075 99.7557 17.6194 101.913 17.6194C106.095 17.6194 106.799 17.7517 107.504 18.7199H107.635V17.6194C107.635 16.5632 107.526 16.125 107.151 15.6826C106.579 14.9781 105.657 14.78 102.992 14.78C99.4915 14.78 98.8751 15.0224 98.8532 16.4308V16.5632H97.1587ZM99.0267 19.4025C98.6307 19.6694 98.4327 20.107 98.4327 20.7672C98.4327 21.5144 98.6526 21.9115 99.2247 22.1549C99.6869 22.3529 100.787 22.4191 103.297 22.4191C106.708 22.4191 107.523 22.0887 107.523 20.724C107.523 19.4036 106.555 19.0513 102.967 19.0513C100.262 19.0513 99.4916 19.1165 99.0294 19.4025H99.0267Z" fill="#2D9DCF"/>
<path d="M141.258 16.694V16.2537C141.258 14.1189 142.556 13.5024 146.98 13.5024C150.436 13.5024 151.623 13.7447 152.483 14.6473C153.187 15.3512 153.341 16.0349 153.341 18.4548V23.8255H151.734L151.757 22.6369H151.692C150.922 23.7374 150.173 23.9579 147.07 23.9579C143.416 23.9579 142.448 23.8255 141.7 23.2534C141.039 22.725 140.819 22.1085 140.819 20.8762C140.819 19.2692 141.215 18.4772 142.272 18.0806C142.888 17.8388 143.856 17.7508 146.014 17.7508C150.196 17.7508 150.9 17.8826 151.604 18.8513H151.736V17.7529C151.736 16.6962 151.626 16.2559 151.252 15.8155C150.68 15.1116 149.758 14.9136 147.092 14.9136C143.592 14.9136 142.976 15.1553 142.954 16.5643V16.6962L141.258 16.694ZM143.126 19.5334C142.73 19.7976 142.532 20.2379 142.532 20.8981C142.532 21.6453 142.752 22.0429 143.324 22.2857C143.786 22.4843 144.886 22.5526 147.396 22.5526C150.807 22.5526 151.622 22.2228 151.622 20.8581C151.622 19.5371 150.654 19.1849 147.066 19.1849C144.361 19.1811 143.591 19.2473 143.128 19.5334H143.126Z" fill="#2D9DCF"/>
<path d="M128.165 13.7671V18.9174C128.165 20.8324 128.319 21.4707 128.912 21.9991C129.484 22.4831 130.43 22.6811 132.323 22.6811C134.767 22.6811 136.022 22.3513 136.704 21.4707C137.144 20.9647 137.276 20.2821 137.276 18.8075V13.7671H138.884V23.9578H137.277V22.4394H137.189C136.375 23.7379 135.321 24.0901 132.149 24.0901C129.641 24.0901 128.341 23.8233 127.549 23.1215C126.823 22.481 126.558 21.515 126.558 19.402V13.7671H128.165Z" fill="#2D9DCF"/>
<path d="M124.646 23.479L123.699 22.8797C122.878 23.7469 122.232 23.8574 117.831 23.8574C113.588 23.8574 112.767 23.7315 112.057 23.0216C111.443 22.3748 111.222 21.1761 111.222 18.3522C111.222 15.7338 111.443 14.6931 112.152 14.0462C112.625 13.6043 113.162 13.4623 114.487 13.3524C115.197 13.3054 116.222 13.2739 117.262 13.2739C119.518 13.2739 121.663 13.3524 122.357 13.4789C123.288 13.639 123.982 14.2992 124.187 15.2769C124.361 16.0183 124.44 17.0435 124.44 18.5737C124.44 19.9934 124.361 21.0501 124.187 21.7445L125.275 22.4383L124.646 23.479ZM122.957 20.9706C123.021 20.5127 123.084 19.3161 123.084 18.4936C123.084 17.5474 123.021 16.4431 122.942 15.8912C122.815 15.1339 122.421 14.787 121.569 14.6765C120.891 14.5821 119.361 14.5346 117.484 14.5346C114.503 14.5346 113.588 14.6605 113.178 15.1024C112.799 15.4808 112.657 16.3961 112.657 18.3992C112.657 20.5762 112.817 21.6959 113.191 22.0743C113.632 22.5317 114.248 22.5952 117.718 22.5952C121.157 22.5952 121.993 22.5162 122.497 22.1063L118.334 19.4378L118.997 18.4125L122.957 20.9706Z" fill="#2D9DCF"/>
</svg>
