<svg width="154" height="38" viewBox="0 0 154 38" fill="none" xmlns="http://www.w3.org/2000/svg">
<path d="M9.49245 5.34906C9.49245 4.70877 9.49245 4.38862 9.58576 4.13226C9.74217 3.70251 10.0807 3.36398 10.5105 3.20756C10.7668 3.11426 11.087 3.11426 11.7273 3.11426H25.8237C26.464 3.11426 26.7841 3.11426 27.0405 3.20756C27.4702 3.36398 27.8088 3.70251 27.9652 4.13226C28.0585 4.38862 28.0585 4.70877 28.0585 5.34906V13.9444C28.0585 19.0713 23.9023 23.2275 18.7755 23.2275C13.6486 23.2275 9.49245 19.0713 9.49245 13.9444V5.34906Z" fill="#FFD35E"/>
<path d="M11.0396 33.37C11.0396 30.3319 13.5025 27.869 16.5407 27.869H21.0103C24.0484 27.869 26.5113 30.3319 26.5113 33.37C26.5113 33.7498 26.2035 34.0577 25.8237 34.0577H11.7273C11.3475 34.0577 11.0396 33.7498 11.0396 33.37Z" fill="#FFD35E"/>
<path d="M18.7755 23.2275C13.6486 23.2275 9.49245 19.0713 9.49245 13.9444V5.34906C9.49245 4.70877 9.49245 4.38862 9.58576 4.13226C9.74217 3.70251 10.0807 3.36398 10.5105 3.20756C10.7668 3.11426 11.087 3.11426 11.7273 3.11426H25.8237C26.464 3.11426 26.7841 3.11426 27.0405 3.20756C27.4702 3.36398 27.8088 3.70251 27.9652 4.13226C28.0585 4.38862 28.0585 4.70877 28.0585 5.34906V13.9444C28.0585 19.0713 23.9023 23.2275 18.7755 23.2275ZM18.7755 23.2275V27.869M28.0585 6.2086H31.9264C32.6473 6.2086 33.0077 6.2086 33.2921 6.32637C33.6712 6.4834 33.9724 6.78459 34.1294 7.16369C34.2472 7.44802 34.2472 7.80846 34.2472 8.52935V9.30294C34.2472 10.7418 34.2472 11.4612 34.089 12.0514C33.6598 13.6532 32.4087 14.9043 30.807 15.3335C30.2167 15.4916 29.4973 15.4916 28.0585 15.4916M9.49245 6.2086H5.62453C4.90364 6.2086 4.54319 6.2086 4.25887 6.32637C3.87977 6.4834 3.57857 6.78459 3.42154 7.16369C3.30377 7.44802 3.30377 7.80846 3.30377 8.52935V9.30294C3.30377 10.7418 3.30377 11.4612 3.46193 12.0514C3.89111 13.6532 5.14222 14.9043 6.74397 15.3335C7.33422 15.4916 8.05363 15.4916 9.49245 15.4916M11.7273 34.0577H25.8237C26.2035 34.0577 26.5113 33.7498 26.5113 33.37C26.5113 30.3319 24.0484 27.869 21.0103 27.869H16.5407C13.5025 27.869 11.0396 30.3319 11.0396 33.37C11.0396 33.7498 11.3475 34.0577 11.7273 34.0577Z" stroke="#FFD35E" stroke-width="3.09434" stroke-linecap="round" stroke-linejoin="round"/>
<path d="M85.657 5.62768C85.8549 5.66339 86.05 5.71315 86.2409 5.77658C86.6163 5.90298 86.9588 6.11136 87.2437 6.38662C87.3991 6.53083 87.5398 6.69013 87.6637 6.86215C87.8591 7.12314 88.0603 7.39586 88.1072 7.78174C88.1142 7.83938 88.1163 7.88314 88.1163 7.89595V29.3181C88.1163 29.5006 88.0437 29.6917 87.9759 29.8635C87.9023 30.0551 87.795 30.2339 87.7022 30.418C87.6093 30.5966 87.4952 30.7633 87.3622 30.9144C87.1877 31.1167 86.9908 31.2985 86.7751 31.4561C86.7153 31.5009 86.6646 31.5362 86.6294 31.5628L86.465 31.6221C86.1352 31.7427 86.1448 31.7411 86.1144 31.7491C85.9718 31.7864 85.8251 31.8052 85.6778 31.8051C77.0655 31.8165 68.453 31.8176 59.8403 31.8083C59.7974 31.8077 59.7547 31.8031 59.7127 31.7945C59.5925 31.7779 59.474 31.7502 59.3589 31.7117C59.2959 31.6909 59.2222 31.6584 59.0755 31.5922C58.9543 31.5388 58.8935 31.5116 58.8401 31.4855C58.6946 31.406 58.5594 31.3088 58.4377 31.1962C58.1504 30.9357 57.8982 30.6389 57.6873 30.3134C57.6499 30.2536 57.6238 30.2067 57.6008 30.164C57.519 30.0077 57.4563 29.8421 57.414 29.6708C57.414 29.6708 57.3906 29.5753 57.3756 29.4792C57.3025 29.0096 57.3697 20.3704 57.3692 18.1752C57.3692 14.8228 57.3706 11.4706 57.3735 8.11851C57.3735 7.94932 57.4386 7.77213 57.5058 7.61255C57.6126 7.35637 57.7166 7.08791 57.8794 6.86856C58.1159 6.5526 58.3635 6.24411 58.7414 6.05411C58.9175 5.96552 59.0803 5.83476 59.2751 5.77125C59.4396 5.71144 59.6094 5.66713 59.7821 5.63889C61.5161 5.36936 82.6607 5.17562 85.657 5.62768ZM75.2069 26.3688V26.3752H80.8888C81.5362 26.3752 82.1836 26.372 82.8304 26.3752C82.9825 26.3752 83.0487 26.3373 83.0525 26.1697C83.0603 25.7379 82.9907 25.3083 82.847 24.9011C82.6516 24.3422 82.2908 23.856 81.8126 23.507C81.3147 23.1334 80.7415 22.9162 80.1048 22.9162H68.5569C68.0765 22.9162 67.6576 22.7748 67.3256 22.4182C67.055 22.1268 66.9408 21.7719 66.9402 21.3823C66.9365 19.8292 66.9333 18.2756 66.944 16.7225C66.9456 16.4539 66.9851 16.1869 67.0614 15.9294C67.2178 15.4133 67.7819 15.0221 68.2841 15.0189C71.5138 15.0135 74.7431 15.0149 77.9721 15.0231C78.2267 15.0279 78.4777 15.0846 78.7097 15.1896C78.9133 15.2772 79.0901 15.4172 79.222 15.5953C79.3539 15.7735 79.4362 15.9834 79.4606 16.2037C79.5177 16.6531 79.4889 17.111 79.5113 17.5663C79.5294 17.9308 79.5348 18.3001 79.6052 18.6561C79.7488 19.391 80.1758 19.9536 80.7628 20.3971C81.3659 20.8518 82.0566 20.9932 82.7989 20.9644C82.9927 20.9569 83.0525 20.9068 83.0519 20.7088C83.0439 19.1215 83.0573 17.5337 83.0407 15.9465C83.0408 15.5275 82.9899 15.1101 82.8891 14.7034C82.6036 13.6168 81.9818 12.7453 81.0606 12.1C80.3594 11.6095 79.5663 11.3176 78.7203 11.3096C75.9888 11.285 73.2567 11.2914 70.5247 11.3064C69.4172 11.3128 68.3065 11.2226 67.2018 11.3725C66.7494 11.437 66.3117 11.5801 65.9086 11.7952C64.878 12.3173 64.0847 13.2118 63.6894 14.2973C63.485 14.8385 63.4124 15.4111 63.4033 15.9838C63.3847 17.0806 63.3927 18.1779 63.3991 19.2747C63.4044 20.2268 63.4124 21.18 63.4391 22.1322C63.4567 22.6508 63.5762 23.161 63.7908 23.6335C64.2056 24.597 64.9411 25.3873 65.8723 25.8703C66.4129 26.1558 66.9931 26.3576 67.6015 26.3624C70.1382 26.3805 72.6728 26.3688 75.2069 26.3688Z" fill="white"/>
<path d="M97.1587 16.466V16.0257C97.1587 13.8909 98.4572 13.2744 102.881 13.2744C106.337 13.2744 107.524 13.5162 108.384 14.4187C109.088 15.1232 109.242 15.8063 109.242 18.2267V23.5975H107.635L107.658 22.4089H107.592C106.822 23.5094 106.073 23.7293 102.969 23.7293C99.3154 23.7293 98.3473 23.5975 97.5985 23.0253C96.9383 22.4969 96.7184 21.8805 96.7184 20.6482C96.7184 19.0412 97.1144 18.2465 98.1712 17.8526C98.7876 17.6103 99.7557 17.5222 101.913 17.5222C106.095 17.5222 106.799 17.6546 107.504 18.6227H107.635V17.5222C107.635 16.466 107.526 16.0278 107.151 15.5854C106.579 14.8809 105.657 14.6829 102.992 14.6829C99.4915 14.6829 98.8751 14.9252 98.8532 16.3336V16.466H97.1587ZM99.0267 19.3054C98.6307 19.5722 98.4327 20.0099 98.4327 20.6701C98.4327 21.4172 98.6526 21.8143 99.2247 22.0577C99.6869 22.2557 100.787 22.3219 103.297 22.3219C106.708 22.3219 107.523 21.9915 107.523 20.6268C107.523 19.3064 106.555 18.9542 102.967 18.9542C100.262 18.9542 99.4916 19.0193 99.0294 19.3054H99.0267Z" fill="white"/>
<path d="M141.258 16.5969V16.1566C141.258 14.0217 142.556 13.4053 146.98 13.4053C150.436 13.4053 151.623 13.6476 152.483 14.5501C153.187 15.2541 153.341 15.9377 153.341 18.3576V23.7283H151.734L151.757 22.5397H151.692C150.922 23.6403 150.173 23.8607 147.07 23.8607C143.416 23.8607 142.448 23.7283 141.7 23.1562C141.039 22.6278 140.819 22.0114 140.819 20.779C140.819 19.172 141.215 18.38 142.272 17.9835C142.888 17.7417 143.856 17.6536 146.014 17.6536C150.196 17.6536 150.9 17.7854 151.604 18.7541H151.736V17.6558C151.736 16.599 151.626 16.1587 151.252 15.7184C150.68 15.0144 149.758 14.8164 147.092 14.8164C143.592 14.8164 142.976 15.0582 142.954 16.4672V16.599L141.258 16.5969ZM143.126 19.4362C142.73 19.7004 142.532 20.1407 142.532 20.8009C142.532 21.5481 142.752 21.9457 143.324 22.1886C143.786 22.3871 144.886 22.4554 147.396 22.4554C150.807 22.4554 151.622 22.1256 151.622 20.7609C151.622 19.4399 150.654 19.0877 147.066 19.0877C144.361 19.084 143.591 19.1501 143.128 19.4362H143.126Z" fill="white"/>
<path d="M128.165 13.6699V18.8202C128.165 20.7352 128.319 21.3735 128.912 21.9019C129.484 22.386 130.43 22.584 132.323 22.584C134.767 22.584 136.022 22.2541 136.704 21.3735C137.144 20.8676 137.276 20.1849 137.276 18.7103V13.6699H138.884V23.8606H137.277V22.3422H137.189C136.375 23.6407 135.321 23.993 132.149 23.993C129.641 23.993 128.341 23.7261 127.549 23.0243C126.823 22.3838 126.558 21.4178 126.558 19.3048V13.6699H128.165Z" fill="white"/>
<path d="M124.646 23.3819L123.699 22.7825C122.878 23.6498 122.232 23.7603 117.831 23.7603C113.588 23.7603 112.767 23.6343 112.057 22.9245C111.443 22.2776 111.222 21.0789 111.222 18.255C111.222 15.6366 111.443 14.5959 112.152 13.949C112.625 13.5071 113.162 13.3652 114.487 13.2552C115.197 13.2082 116.222 13.1768 117.262 13.1768C119.518 13.1768 121.663 13.2552 122.357 13.3817C123.288 13.5418 123.982 14.202 124.187 15.1798C124.361 15.9211 124.44 16.9464 124.44 18.4765C124.44 19.8962 124.361 20.9529 124.187 21.6473L125.275 22.3411L124.646 23.3819ZM122.957 20.8734C123.021 20.4155 123.084 19.2189 123.084 18.3965C123.084 17.4502 123.021 16.3459 122.942 15.7941C122.815 15.0367 122.421 14.6898 121.569 14.5794C120.891 14.4849 119.361 14.4374 117.484 14.4374C114.503 14.4374 113.588 14.5633 113.178 15.0053C112.799 15.3837 112.657 16.299 112.657 18.302C112.657 20.479 112.817 21.5987 113.191 21.9771C113.632 22.4345 114.248 22.498 117.718 22.498C121.157 22.498 121.993 22.419 122.497 22.0091L118.334 19.3406L118.997 18.3153L122.957 20.8734Z" fill="white"/>
</svg>
