<svg width="112" height="31" viewBox="0 0 112 31" fill="none" xmlns="http://www.w3.org/2000/svg">
<path d="M33.0347 0.315299C33.2656 0.356963 33.4932 0.415018 33.7159 0.489022C34.1539 0.63648 34.5535 0.879595 34.8858 1.20072C35.0672 1.36898 35.2313 1.55482 35.3759 1.75552C35.6038 2.06 35.8385 2.37818 35.8933 2.82836C35.9014 2.89561 35.9039 2.94667 35.9039 2.96161V27.954C35.9039 28.167 35.8192 28.3899 35.7401 28.5904C35.6542 28.8139 35.5291 29.0225 35.4207 29.2373C35.3124 29.4457 35.1792 29.6402 35.0241 29.8164C34.8206 30.0525 34.5908 30.2645 34.3392 30.4484C34.2694 30.5007 34.2103 30.5418 34.1692 30.5729L33.9774 30.6421C33.5926 30.7828 33.6038 30.7809 33.5683 30.7903C33.402 30.8338 33.2308 30.8557 33.059 30.8556C23.0113 30.8689 12.9634 30.8702 2.91526 30.8594C2.86525 30.8586 2.81543 30.8532 2.76644 30.8432C2.62615 30.8238 2.48795 30.7915 2.35361 30.7467C2.28014 30.7224 2.19421 30.6844 2.02298 30.6072C1.88164 30.5449 1.81065 30.5132 1.74839 30.4827C1.57857 30.39 1.42088 30.2766 1.2789 30.1452C0.943722 29.8412 0.649439 29.495 0.403438 29.1153C0.359851 29.0456 0.329339 28.9908 0.302565 28.941C0.207148 28.7586 0.13398 28.5654 0.0846331 28.3656C0.0846331 28.3656 0.0572359 28.2542 0.0398014 28.1421C-0.0455033 27.5941 0.0329524 17.5151 0.0323297 14.9541C0.0323297 11.0429 0.0339912 7.132 0.0373121 3.22126C0.0373121 3.02388 0.113276 2.81716 0.191731 2.63098C0.316264 2.3321 0.437683 2.0189 0.627595 1.76299C0.903434 1.39437 1.19235 1.03447 1.6332 0.812805C1.83867 0.709443 2.02859 0.556892 2.25586 0.482795C2.4478 0.413019 2.64583 0.36132 2.84739 0.328374C4.87042 0.0139296 29.539 -0.212096 33.0347 0.315299ZM20.8429 24.5132V24.5207H27.4718C28.2271 24.5207 28.9824 24.5169 29.7371 24.5207C29.9145 24.5207 29.9917 24.4765 29.9961 24.2809C30.0052 23.7772 29.924 23.276 29.7564 22.8009C29.5284 22.1489 29.1075 21.5817 28.5496 21.1745C27.9687 20.7386 27.3 20.4852 26.5571 20.4852H13.0846C12.5242 20.4852 12.0354 20.3202 11.6481 19.9043C11.3324 19.5643 11.1992 19.1502 11.1985 18.6957C11.1942 16.8837 11.1904 15.0711 11.2029 13.2592C11.2047 12.9459 11.2508 12.6344 11.3399 12.3339C11.5223 11.7318 12.1805 11.2754 12.7664 11.2717C16.5343 11.2654 20.3019 11.2671 24.069 11.2766C24.366 11.2822 24.6588 11.3483 24.9295 11.4709C25.1671 11.5731 25.3733 11.7364 25.5272 11.9442C25.6811 12.152 25.7772 12.3969 25.8056 12.654C25.8722 13.1783 25.8386 13.7125 25.8647 14.2436C25.8859 14.6689 25.8921 15.0998 25.9743 15.5151C26.1418 16.3725 26.6399 17.0288 27.3249 17.5462C28.0285 18.0767 28.8342 18.2417 29.7003 18.2081C29.9263 18.1994 29.9961 18.1409 29.9955 17.9099C29.9861 16.0581 30.0017 14.2056 29.9824 12.3539C29.9825 11.8651 29.9231 11.3781 29.8055 10.9037C29.4724 9.63593 28.747 8.61912 27.6723 7.86632C26.8541 7.2941 25.9289 6.9535 24.9419 6.94416C21.7551 6.91552 18.5677 6.92299 15.3803 6.94042C14.0883 6.9479 12.7925 6.84267 11.5036 7.01763C10.9758 7.09289 10.4653 7.25978 9.99492 7.51078C8.79264 8.11984 7.86704 9.16342 7.4059 10.4298C7.16742 11.0612 7.08273 11.7293 7.07215 12.3974C7.05036 13.677 7.0597 14.9572 7.06717 16.2368C7.07339 17.3476 7.08274 18.4597 7.11387 19.5705C7.1344 20.1756 7.27382 20.7708 7.5242 21.3221C8.00813 22.4462 8.86614 23.3682 9.95258 23.9316C10.5833 24.2648 11.2602 24.5001 11.97 24.5057C14.9295 24.5269 17.8865 24.5132 20.8429 24.5132Z" fill="#2D9DCF"/>
<path d="M46.4535 12.9594V12.4457C46.4535 9.95501 47.9685 9.23584 53.1297 9.23584C57.1614 9.23584 58.5469 9.5179 59.55 10.5708C60.3713 11.3927 60.5512 12.1897 60.5512 15.0135V21.2794H58.6764L58.7025 19.8927H58.6253C57.7268 21.1766 56.8532 21.4332 53.2324 21.4332C48.9697 21.4332 47.8402 21.2794 46.9666 20.6119C46.1964 19.9954 45.9398 19.2763 45.9398 17.8385C45.9398 15.9637 46.4018 15.0366 47.6347 14.577C48.3539 14.2943 49.4834 14.1916 52.0002 14.1916C56.8794 14.1916 57.7007 14.346 58.5226 15.4755H58.6764V14.1916C58.6764 12.9594 58.5481 12.4482 58.1116 11.932C57.4441 11.1101 56.3682 10.879 53.2586 10.879C49.1752 10.879 48.456 11.1617 48.4305 12.8049V12.9594H46.4535ZM48.6328 16.2719C48.1708 16.5833 47.9398 17.0938 47.9398 17.8641C47.9398 18.7358 48.1964 19.1991 48.8638 19.483C49.4031 19.714 50.687 19.7912 53.6148 19.7912C57.5948 19.7912 58.545 19.4058 58.545 17.8136C58.545 16.2732 57.4155 15.8622 53.2293 15.8622C50.0743 15.8622 49.1752 15.9382 48.636 16.2719H48.6328Z" fill="#2D9DCF"/>
<path d="M97.9021 13.1132V12.5995C97.9021 10.1088 99.417 9.38965 104.578 9.38965C108.61 9.38965 109.995 9.67234 110.999 10.7253C111.82 11.5466 112 12.3442 112 15.1673V21.4332H110.125L110.151 20.0465H110.076C109.177 21.3305 108.304 21.5876 104.683 21.5876C100.42 21.5876 99.2906 21.4332 98.4177 20.7657C97.6468 20.1493 97.3903 19.4301 97.3903 17.9924C97.3903 16.1175 97.8523 15.1935 99.0851 14.7308C99.8043 14.4488 100.934 14.346 103.451 14.346C108.33 14.346 109.151 14.4998 109.973 15.63H110.127V14.3485C110.127 13.1157 109.999 12.602 109.562 12.0883C108.895 11.267 107.819 11.036 104.709 11.036C100.626 11.036 99.9071 11.318 99.8809 12.9619V13.1157L97.9021 13.1132ZM100.081 16.4257C99.6194 16.734 99.3884 17.2477 99.3884 18.0179C99.3884 18.8896 99.6449 19.3535 100.312 19.6368C100.852 19.8684 102.136 19.9481 105.063 19.9481C109.043 19.9481 109.994 19.5633 109.994 17.9712C109.994 16.4301 108.864 16.0191 104.678 16.0191C101.523 16.0148 100.624 16.092 100.085 16.4257H100.081Z" fill="#2D9DCF"/>
<path d="M82.6273 9.69824V15.7069C82.6273 17.941 82.8072 18.6858 83.499 19.3022C84.1665 19.8669 85.2705 20.098 87.479 20.098C90.3296 20.098 91.7935 19.7131 92.5892 18.6858C93.1029 18.0955 93.2567 17.2991 93.2567 15.5787V9.69824H95.1334V21.5874H93.2586V19.8159H93.1559C92.2057 21.3308 90.9765 21.7418 87.2754 21.7418C84.3489 21.7418 82.8327 21.4305 81.9087 20.6116C81.0613 19.8645 80.7531 18.7374 80.7531 16.2723V9.69824H82.6273Z" fill="#2D9DCF"/>
<path d="M78.5216 21.0285L77.4169 20.3292C76.4599 21.3411 75.7059 21.47 70.5714 21.47C65.6206 21.47 64.6636 21.323 63.8354 20.4949C63.1181 19.7402 62.8604 18.3417 62.8604 15.0472C62.8604 11.9924 63.1181 10.7782 63.9463 10.0236C64.4979 9.50799 65.1237 9.34236 66.6698 9.21409C67.4979 9.1593 68.6941 9.12256 69.9076 9.12256C72.539 9.12256 75.0421 9.21409 75.8516 9.36166C76.9375 9.54846 77.747 10.3187 77.9867 11.4594C78.189 12.3243 78.2812 13.5204 78.2812 15.3056C78.2812 16.9619 78.189 18.1948 77.9867 19.0048L79.2563 19.8143L78.5216 21.0285ZM76.5521 18.102C76.6262 17.5677 76.6996 16.1717 76.6996 15.2122C76.6996 14.1082 76.6262 12.8199 76.534 12.1761C76.3864 11.2925 75.9263 10.8878 74.9325 10.7589C74.1417 10.6487 72.3566 10.5933 70.1667 10.5933C66.6885 10.5933 65.6212 10.7402 65.1424 11.2558C64.7009 11.6973 64.5353 12.7651 64.5353 15.102C64.5353 17.6418 64.7221 18.9482 65.158 19.3896C65.6729 19.9233 66.3908 19.9974 70.4394 19.9974C74.4512 19.9974 75.4263 19.9052 76.0153 19.427L71.1586 16.3137L71.9313 15.1175L76.5521 18.102Z" fill="#2D9DCF"/>
</svg>
