<svg width="39" height="76" viewBox="0 0 39 76" fill="none" xmlns="http://www.w3.org/2000/svg">
<path d="M28.0432 0.561664C27.8011 0.22555 27.3324 0.149316 26.9963 0.39139C26.6602 0.633465 26.5839 1.10218 26.826 1.43829L28.0432 0.561664ZM0.291676 72.4139C0.155545 72.8051 0.362321 73.2326 0.753527 73.3687L7.12857 75.5871C7.51978 75.7232 7.94727 75.5165 8.0834 75.1253C8.21953 74.7341 8.01275 74.3066 7.62155 74.1704L1.95484 72.1985L3.92675 66.5318C4.06288 66.1406 3.8561 65.7131 3.4649 65.577C3.0737 65.4409 2.6462 65.6476 2.51007 66.0388L0.291676 72.4139ZM26.826 1.43829C35.2064 13.0742 39.1665 25.5851 35.8703 37.6817C32.5728 49.7831 21.9537 61.6919 0.673437 71.9852L1.32659 73.3355C22.8066 62.9456 33.8601 50.7642 37.3175 38.0761C40.7761 25.3833 36.5734 12.4056 28.0432 0.561664L26.826 1.43829Z" fill="#8DDCFF"/>
</svg>
