<svg width="36" height="37" viewBox="0 0 36 37" fill="none" xmlns="http://www.w3.org/2000/svg">
<path d="M19.1664 22.333L14.1664 17.333M22.517 4.83301V2.33301M29.0826 7.43411L30.8503 5.66634M29.0826 20.6663L30.8503 22.4341M15.8503 7.43411L14.0826 5.66634M31.6837 13.9997H34.1837M7.7187 33.7807L23.1141 18.3853C23.7742 17.7253 24.1042 17.3953 24.2278 17.0147C24.3366 16.68 24.3366 16.3194 24.2278 15.9846C24.1042 15.6041 23.7742 15.2741 23.1141 14.6141L21.8854 13.3853C21.2253 12.7253 20.8953 12.3953 20.5148 12.2716C20.18 12.1628 19.8195 12.1628 19.4847 12.2716C19.1042 12.3953 18.7742 12.7253 18.1141 13.3853L2.7187 28.7807C2.05867 29.4408 1.72866 29.7708 1.60501 30.1513C1.49625 30.4861 1.49625 30.8466 1.60501 31.1814C1.72866 31.5619 2.05867 31.8919 2.7187 32.552L3.94746 33.7807C4.60749 34.4408 4.93751 34.7708 5.31805 34.8944C5.65279 35.0032 6.01337 35.0032 6.34811 34.8944C6.72866 34.7708 7.05867 34.4408 7.7187 33.7807Z" stroke="#2D9DCF" stroke-width="3" stroke-linecap="round" stroke-linejoin="round"/>
</svg>
