<svg width="37" height="37" viewBox="0 0 37 37" fill="none" xmlns="http://www.w3.org/2000/svg">
<path d="M11.834 12.333H11.8507M1.83399 7.66634L1.83398 15.1239C1.83398 15.9392 1.83398 16.3468 1.92608 16.7304C2.00774 17.0706 2.14242 17.3957 2.32518 17.694C2.53132 18.0303 2.81958 18.3186 3.39608 18.8951L16.1771 31.6762C18.1572 33.6562 19.1473 34.6463 20.2889 35.0172C21.2931 35.3435 22.3749 35.3435 23.3791 35.0172C24.5207 34.6463 25.5108 33.6562 27.4908 31.6761L31.1771 27.9899C33.1572 26.0098 34.1473 25.0197 34.5182 23.8781C34.8445 22.8739 34.8445 21.7921 34.5182 20.7879C34.1473 19.6463 33.1572 18.6562 31.1771 16.6762L18.3961 3.89511C17.8196 3.3186 17.5313 3.03035 17.1949 2.82421C16.8967 2.64144 16.5715 2.50676 16.2314 2.42511C15.8478 2.33301 15.4401 2.33301 14.6248 2.33301L7.16732 2.33301C5.30048 2.33301 4.36706 2.33301 3.65402 2.69632C3.02681 3.0159 2.51688 3.52583 2.1973 4.15304C1.83399 4.86608 1.83399 5.7995 1.83399 7.66634ZM12.6673 12.333C12.6673 12.7932 12.2942 13.1663 11.834 13.1663C11.3737 13.1663 11.0007 12.7932 11.0007 12.333C11.0007 11.8728 11.3737 11.4997 11.834 11.4997C12.2942 11.4997 12.6673 11.8728 12.6673 12.333Z" stroke="#2D9DCF" stroke-width="3" stroke-linecap="round" stroke-linejoin="round"/>
</svg>
