<svg width="39" height="39" viewBox="0 0 39 39" fill="none" xmlns="http://www.w3.org/2000/svg">
<path d="M19.8352 19.1472L4.52715 15.1026C3.54226 18.8303 3.95137 22.7892 5.67774 26.2367C7.40411 29.6842 10.3291 32.3833 13.9039 33.8276L19.8352 19.1472ZM19.8352 19.1472L20.001 3.31473C16.4873 3.27793 13.0613 4.411 10.2624 6.53547C7.46348 8.65994 5.45081 11.6551 4.54136 15.0492L19.8352 19.1472ZM35.6685 19.1472C35.6685 27.8917 28.5797 34.9805 19.8352 34.9805C11.0907 34.9805 4.00185 27.8917 4.00185 19.1472C4.00185 10.4027 11.0907 3.31386 19.8352 3.31386C28.5797 3.31386 35.6685 10.4027 35.6685 19.1472Z" stroke="#2D9DCF" stroke-width="2" stroke-linecap="round" stroke-linejoin="round"/>
</svg>
