<svg width="39" height="39" viewBox="0 0 39 39" fill="none" xmlns="http://www.w3.org/2000/svg">
<path d="M35.1686 28.7008L34.0733 12.8195C33.9013 10.3262 33.8154 9.07959 33.275 8.13457C32.7992 7.30254 32.0829 6.6339 31.2201 6.21651C30.2401 5.74243 28.9905 5.74243 26.4913 5.74243H12.1791C9.67992 5.74243 8.43031 5.74243 7.45035 6.21651C6.58756 6.6339 5.87122 7.30254 5.39546 8.13457C4.85508 9.07959 4.7691 10.3262 4.59715 12.8195L3.50189 28.7008M35.1686 28.7008C35.1686 31.7613 32.6875 34.2424 29.6269 34.2424H9.04356C5.98298 34.2424 3.50189 31.7613 3.50189 28.7008M35.1686 28.7008C35.1686 25.6402 32.6875 23.1591 29.6269 23.1591H9.04356C5.98298 23.1591 3.50189 25.6402 3.50189 28.7008M9.83523 28.7008H9.85106M19.3352 28.7008H28.8352" stroke="#2D9DCF" stroke-width="2" stroke-linecap="round" stroke-linejoin="round"/>
</svg>
