<svg width="18" height="16" viewBox="0 0 18 16" fill="none" xmlns="http://www.w3.org/2000/svg">
<path d="M1.50966 13.2419L7.92069 2.16835C8.27501 1.55634 8.45217 1.25033 8.6833 1.14756C8.88492 1.05791 9.11508 1.05791 9.3167 1.14756C9.54783 1.25033 9.72499 1.55634 10.0793 2.16834L16.4903 13.2419C16.8459 13.8561 17.0237 14.1632 16.9975 14.4153C16.9745 14.6351 16.8594 14.8349 16.6806 14.9649C16.4756 15.1139 16.1207 15.1139 15.411 15.1139H2.58898C1.87925 15.1139 1.52439 15.1139 1.31942 14.9649C1.14065 14.8349 1.02547 14.6351 1.00254 14.4153C0.976267 14.1632 1.15406 13.8561 1.50966 13.2419Z" fill="#FDCA40"/>
<path d="M9 6.15007V9.26793M9 12.3858H9.00779M7.92069 2.16835L1.50966 13.2419C1.15406 13.8561 0.976267 14.1632 1.00254 14.4153C1.02547 14.6351 1.14065 14.8349 1.31942 14.9649C1.52439 15.1139 1.87925 15.1139 2.58898 15.1139H15.411C16.1207 15.1139 16.4756 15.1139 16.6806 14.9649C16.8594 14.8349 16.9745 14.6351 16.9975 14.4153C17.0237 14.1632 16.8459 13.8561 16.4903 13.2419L10.0793 2.16834C9.72499 1.55634 9.54783 1.25033 9.3167 1.14756C9.11508 1.05791 8.88492 1.05791 8.6833 1.14756C8.45217 1.25033 8.27501 1.55634 7.92069 2.16835Z" stroke="#FDCA40" stroke-width="1.1692" stroke-linecap="round" stroke-linejoin="round"/>
<path d="M8.95056 5.75708V8.87494M8.95056 11.9928H8.95836" stroke="white" stroke-width="2" stroke-linecap="round" stroke-linejoin="round"/>
</svg>
