<svg width="39" height="35" viewBox="0 0 39 35" fill="none" xmlns="http://www.w3.org/2000/svg">
<path d="M19.1718 13.199V20.0863M19.1718 26.9736H19.1891M16.7877 4.40343L2.62583 28.8648C1.84033 30.2215 1.44757 30.8999 1.50562 31.4567C1.55625 31.9424 1.81069 32.3837 2.2056 32.6708C2.65837 33 3.44225 33 5.01002 33H33.3337C34.9014 33 35.6853 33 36.1381 32.6708C36.533 32.3837 36.7874 31.9424 36.8381 31.4567C36.8961 30.8999 36.5033 30.2215 35.7178 28.8648L21.556 4.40342C20.7733 3.05151 20.382 2.37555 19.8714 2.14852C19.4261 1.95049 18.9176 1.95049 18.4723 2.14852C17.9617 2.37555 17.5703 3.05151 16.7877 4.40343Z" stroke="#FF7A68" stroke-width="3" stroke-linecap="round" stroke-linejoin="round"/>
</svg>
