<svg width="106" height="27" viewBox="0 0 106 27" fill="none" xmlns="http://www.w3.org/2000/svg">
<g clip-path="url(#clip0_604_13151)">
<path d="M7.23849 4.60742H24.9921V8.89061H11.5217V22.3611H7.23849V4.60742Z" fill="#849CB7"/>
<path d="M24.9921 8.89014H29.2753V26.6438H11.5216V22.3606H24.9921V8.89014Z" fill="#849CB7"/>
<path d="M44.7077 14.1184V4.61621H42.89L39.6146 9.34932L36.3392 4.61621H34.4766V14.1184H36.3392V7.8916L39.0477 11.8329H40.1725L42.863 7.8916V14.1184H44.7077Z" fill="#849CB7"/>
<path d="M51.3578 4.61621H49.4951V14.1184H51.3578V4.61621Z" fill="#849CB7"/>
<path d="M65.4576 13.1736V11.041L63.5949 11.266V12.2558H58.007V6.46986H63.5949V7.46867L65.4576 7.68463V5.57003C65.4576 5.03013 65.0526 4.61621 64.5217 4.61621H57.0711C56.5492 4.61621 56.1443 5.03013 56.1443 5.57003V13.1736C56.1443 13.7045 56.5492 14.1184 57.0711 14.1184H64.5217C65.0526 14.1184 65.4576 13.6955 65.4576 13.1736Z" fill="#849CB7"/>
<path d="M79.5584 14.1182L76.7599 10.3209H78.6225C79.1534 10.3209 79.5584 9.90701 79.5584 9.37611V5.57882C79.5584 5.03892 79.1534 4.625 78.6225 4.625H70.2451V14.1272H72.1078V10.3299H74.4203L77.2098 14.1272H79.5584V14.1182ZM77.6957 8.45828H72.1078V6.46965H77.6957V8.45828Z" fill="#849CB7"/>
<path d="M93.6581 13.1736V5.57003C93.6581 5.03013 93.2532 4.61621 92.7223 4.61621H85.2717C84.7498 4.61621 84.3449 5.03013 84.3449 5.57003V13.1736C84.3449 13.7045 84.7498 14.1184 85.2717 14.1184H92.7223C93.2532 14.1184 93.6581 13.7045 93.6581 13.1736ZM91.7955 12.2558H86.2075V6.46986H91.7955V12.2558Z" fill="#849CB7"/>
<path d="M43.781 18.9953V17.1416H34.4678V26.6348H36.3304V22.8195H41.9184V20.9479H36.3304V18.9953H43.781Z" fill="#849CB7"/>
<path d="M55.6941 25.6902V18.0866C55.6941 17.5467 55.2892 17.1328 54.7583 17.1328H47.3077C46.7858 17.1328 46.3809 17.5467 46.3809 18.0866V25.6902C46.3809 26.2211 46.7858 26.635 47.3077 26.635H54.7583C55.2892 26.635 55.6941 26.2211 55.6941 25.6902ZM53.8315 24.7814H48.2435V18.9955H53.8315V24.7814Z" fill="#849CB7"/>
<path d="M68.3464 25.6902V23.5576L66.4838 23.7826V24.7724H60.8959V18.9865H66.4838V19.9853L68.3464 20.2012V18.0866C68.3464 17.5467 67.9415 17.1328 67.4106 17.1328H59.96C59.4381 17.1328 59.0332 17.5467 59.0332 18.0866V25.6902C59.0332 26.2211 59.4381 26.635 59.96 26.635H67.4106C67.9415 26.635 68.3464 26.2211 68.3464 25.6902Z" fill="#849CB7"/>
<path d="M81.0066 25.6902V17.1328H79.144V24.7724H73.556V17.1328H71.6934V25.6902C71.6934 26.2211 72.0983 26.635 72.6202 26.635H80.0708C80.6017 26.635 81.0066 26.2211 81.0066 25.6902Z" fill="#849CB7"/>
<path d="M93.6581 25.69V21.9017C93.6581 21.3708 93.2532 20.9479 92.7223 20.9479H86.2075V18.9953H91.7955V19.9941L93.6581 20.21V18.0954C93.6581 17.5555 93.2532 17.1416 92.7223 17.1416H85.2717C84.7498 17.1416 84.3449 17.5555 84.3449 18.0954V21.8657C84.3449 22.3966 84.7498 22.8195 85.2717 22.8195H91.8045V24.7812H86.2165V23.7913L84.3539 23.5664V25.699C84.3539 26.2299 84.7588 26.6438 85.2807 26.6438H92.7313C93.2532 26.6348 93.6581 26.2209 93.6581 25.69Z" fill="#849CB7"/>
<path d="M95.746 4.02196C96.8528 4.02196 97.7617 3.11313 97.7617 2.00634C97.7617 0.899551 96.8528 -0.00927734 95.746 -0.00927734C94.6302 -0.00927734 93.7304 0.899551 93.7304 2.00634C93.7304 3.11313 94.6392 4.02196 95.746 4.02196ZM95.746 3.63504C94.9002 3.63504 94.2253 2.95116 94.2253 2.00634C94.2253 1.06152 94.9092 0.377651 95.746 0.377651C96.5919 0.377651 97.2667 1.06152 97.2667 2.00634C97.2667 2.95116 96.5919 3.63504 95.746 3.63504ZM94.9722 3.14013H95.3951V2.15931H95.656L96.2499 3.14013H96.6819L96.07 2.14132C96.4479 2.10532 96.6639 1.91636 96.6639 1.52943C96.6639 1.05252 96.3669 0.863559 95.818 0.863559H94.9722V3.14013ZM95.3951 1.1785H95.773C95.989 1.1785 96.2409 1.22349 96.2409 1.49344C96.2409 1.79938 96.025 1.83537 95.773 1.83537H95.3951V1.1785Z" fill="#849CB7"/>
</g>
<defs>
<clipPath id="clip0_604_13151">
<rect width="106" height="26.635" fill="white"/>
</clipPath>
</defs>
</svg>
