<svg width="38" height="39" viewBox="0 0 38 39" fill="none" xmlns="http://www.w3.org/2000/svg">
<path d="M14.2496 16.8884L17.4162 20.0551L24.5412 12.9301M31.6662 33.5134V12.6134C31.6662 9.95318 31.6662 8.62305 31.1485 7.60697C30.6931 6.7132 29.9664 5.98655 29.0727 5.53115C28.0566 5.01343 26.7265 5.01343 24.0662 5.01343H13.9329C11.2726 5.01343 9.94251 5.01343 8.92643 5.53115C8.03266 5.98655 7.306 6.7132 6.8506 7.60697C6.33289 8.62305 6.33289 9.95318 6.33289 12.6134V33.5134L10.6871 30.3468L14.6454 33.5134L18.9996 30.3468L23.3537 33.5134L27.3121 30.3468L31.6662 33.5134Z" stroke="#2D9DCF" stroke-width="2.00001" stroke-linecap="round" stroke-linejoin="round"/>
</svg>
