<svg width="39" height="39" viewBox="0 0 39 39" fill="none" xmlns="http://www.w3.org/2000/svg">
<path d="M33.5852 33.4753H7.61854C6.73179 33.4753 6.28841 33.4753 5.94972 33.3027C5.6518 33.1509 5.40958 32.9087 5.25778 32.6108C5.08521 32.2721 5.08521 31.8287 5.08521 30.9419V4.97528M32.0019 12.8919L25.797 19.5145C25.5618 19.7655 25.4443 19.891 25.3024 19.9558C25.1772 20.0131 25.0393 20.0367 24.9022 20.0243C24.7468 20.0103 24.5942 19.9311 24.2889 19.7726L19.1315 17.0946C18.8262 16.9361 18.6736 16.8569 18.5183 16.8429C18.3812 16.8305 18.2432 16.8542 18.118 16.9114C17.9761 16.9763 17.8586 17.1018 17.6234 17.3527L11.4185 23.9753" stroke="#2D9DCF" stroke-width="2" stroke-linecap="round" stroke-linejoin="round"/>
</svg>
