<svg width="34" height="32" viewBox="0 0 34 32" fill="none" xmlns="http://www.w3.org/2000/svg">
<path d="M16.1919 1.21334C16.5138 0.5617 17.0396 0.5617 17.3616 1.21334L21.4199 9.43599C21.7418 10.0876 22.5936 10.7067 23.3125 10.8113L32.3865 12.133C33.1061 12.2373 33.2688 12.7384 32.7481 13.2458L26.1816 19.6462C25.6609 20.1536 25.3357 21.1548 25.4586 21.8713L27.0083 30.9085C27.1313 31.6247 26.705 31.9342 26.0619 31.5965L17.9462 27.3264C17.3026 26.988 16.2497 26.988 15.6061 27.3264L7.49097 31.5929C6.84737 31.9314 6.42183 31.6219 6.54455 30.9049L8.09446 21.8678C8.21742 21.1515 7.89219 20.1495 7.37152 19.6426L0.805005 13.2422C0.284348 12.7348 0.446728 12.2344 1.16659 12.1294L10.2406 10.8077C10.9602 10.7034 11.812 10.0841 12.1332 9.43242L16.1919 1.21334Z" fill="#FFC12C"/>
</svg>
