<svg width="40" height="40" viewBox="0 0 40 40" fill="none" xmlns="http://www.w3.org/2000/svg">
<path d="M13.3333 13.333H13.35M3.33331 8.66634L3.33331 16.1239C3.33331 16.9392 3.33331 17.3468 3.42541 17.7304C3.50707 18.0706 3.64175 18.3957 3.82451 18.694C4.03065 19.0303 4.3189 19.3186 4.89541 19.8951L17.6765 32.6762C19.6565 34.6562 20.6466 35.6463 21.7882 36.0172C22.7924 36.3435 23.8742 36.3435 24.8784 36.0172C26.02 35.6463 27.0101 34.6562 28.9902 32.6761L32.6765 28.9899C34.6565 27.0098 35.6466 26.0197 36.0175 24.8781C36.3438 23.8739 36.3438 22.7921 36.0175 21.7879C35.6466 20.6463 34.6565 19.6562 32.6765 17.6762L19.8954 4.89511C19.3189 4.3186 19.0306 4.03035 18.6943 3.82421C18.396 3.64144 18.0709 3.50676 17.7308 3.42511C17.3471 3.33301 16.9395 3.33301 16.1242 3.33301L8.66665 3.33301C6.79981 3.33301 5.86638 3.33301 5.15335 3.69632C4.52614 4.0159 4.0162 4.52583 3.69663 5.15304C3.33331 5.86608 3.33331 6.7995 3.33331 8.66634ZM14.1666 13.333C14.1666 13.7932 13.7936 14.1663 13.3333 14.1663C12.8731 14.1663 12.5 13.7932 12.5 13.333C12.5 12.8728 12.8731 12.4997 13.3333 12.4997C13.7936 12.4997 14.1666 12.8728 14.1666 13.333Z" stroke="#2D9DCF" stroke-width="3" stroke-linecap="round" stroke-linejoin="round"/>
</svg>
