<svg width="60" height="61" viewBox="0 0 60 61" fill="none" xmlns="http://www.w3.org/2000/svg">
<path d="M6.25113 33.3344H21.2511M38.7511 33.3344H53.7511M30.0011 18.3344V53.3344M30.0011 18.3344C33.4529 18.3344 36.2511 15.5362 36.2511 12.0844M30.0011 18.3344C26.5493 18.3344 23.7511 15.5362 23.7511 12.0844M10.0011 53.3344L50.0011 53.3344M10.0011 12.0844L23.7511 12.0844M23.7511 12.0844C23.7511 8.63263 26.5493 5.83441 30.0011 5.83441C33.4529 5.83441 36.2511 8.63263 36.2511 12.0844M36.2511 12.0844L50.0011 12.0844M22.2022 36.6753C21.2005 40.5109 17.7964 43.3344 13.7511 43.3344C9.70587 43.3344 6.30176 40.5109 5.30003 36.6753C5.21818 36.3619 5.17726 36.2052 5.17331 35.5791C5.17089 35.1953 5.31353 34.3103 5.43641 33.9467C5.63689 33.3535 5.85389 33.0187 6.2879 32.3491L13.7511 20.8344L21.2143 32.3491C21.6484 33.0187 21.8654 33.3535 22.0658 33.9467C22.1887 34.3103 22.3314 35.1953 22.3289 35.5791C22.325 36.2052 22.2841 36.3619 22.2022 36.6753ZM54.7022 36.6753C53.7005 40.5109 50.2964 43.3344 46.2511 43.3344C42.2059 43.3344 38.8018 40.5109 37.8 36.6753C37.7182 36.3619 37.6773 36.2052 37.6733 35.5791C37.6709 35.1953 37.8135 34.3103 37.9364 33.9467C38.1369 33.3535 38.3539 33.0187 38.7879 32.3491L46.2511 20.8344L53.7144 32.3491C54.1484 33.0187 54.3654 33.3535 54.5658 33.9467C54.6887 34.3103 54.8314 35.1953 54.8289 35.5791C54.825 36.2052 54.7841 36.3619 54.7022 36.6753Z" stroke="#2D9DCF" stroke-width="3.53165" stroke-linecap="round" stroke-linejoin="round"/>
</svg>
