<svg width="39" height="39" viewBox="0 0 39 39" fill="none" xmlns="http://www.w3.org/2000/svg">
<path d="M35.6686 33.7644V30.5977C35.6686 27.6467 33.6502 25.167 30.9186 24.4639M25.3769 5.72477C27.6979 6.6643 29.3352 8.93981 29.3352 11.5977C29.3352 14.2557 27.6979 16.5312 25.3769 17.4707M27.7519 33.7644C27.7519 30.8134 27.7519 29.338 27.2698 28.1741C26.627 26.6222 25.3941 25.3893 23.8422 24.7465C22.6783 24.2644 21.2029 24.2644 18.2519 24.2644H13.5019C10.5509 24.2644 9.07545 24.2644 7.91156 24.7465C6.35972 25.3893 5.12678 26.6222 4.48399 28.1741C4.00189 29.338 4.00189 30.8134 4.00189 33.7644M22.2102 11.5977C22.2102 15.0955 19.3747 17.9311 15.8769 17.9311C12.3791 17.9311 9.54356 15.0955 9.54356 11.5977C9.54356 8.09993 12.3791 5.2644 15.8769 5.2644C19.3747 5.2644 22.2102 8.09993 22.2102 11.5977Z" stroke="#2D9DCF" stroke-width="2" stroke-linecap="round" stroke-linejoin="round"/>
</svg>
