<svg width="316" height="35" viewBox="0 0 316 35" fill="none" xmlns="http://www.w3.org/2000/svg">
<path d="M36.7052 0.362051C36.9617 0.408344 37.2147 0.472849 37.4621 0.555076C37.9487 0.718919 38.3928 0.989046 38.7621 1.34586C38.9635 1.5328 39.1459 1.7393 39.3065 1.96229C39.5598 2.30061 39.8206 2.65414 39.8815 3.15434C39.8905 3.22906 39.8932 3.2858 39.8932 3.3024V31.0718C39.8932 31.3084 39.7991 31.556 39.7113 31.7788C39.6158 32.0272 39.4767 32.259 39.3563 32.4976C39.236 32.7292 39.0881 32.9452 38.9156 33.1411C38.6895 33.4033 38.4342 33.6389 38.1546 33.8433C38.0771 33.9014 38.0114 33.9471 37.9657 33.9817L37.7527 34.0585C37.3251 34.2148 37.3375 34.2127 37.2981 34.2231C37.1133 34.2714 36.9232 34.2959 36.7322 34.2958C25.5681 34.3105 14.4037 34.3119 3.23917 34.2999C3.18362 34.2991 3.12826 34.2931 3.07382 34.2819C2.91795 34.2604 2.76439 34.2245 2.61513 34.1747C2.53349 34.1477 2.43801 34.1055 2.24776 34.0197C2.09071 33.9505 2.01184 33.9152 1.94265 33.8813C1.75396 33.7783 1.57875 33.6524 1.421 33.5064C1.04858 33.1686 0.721599 32.784 0.448264 32.362C0.399835 32.2846 0.365933 32.2237 0.336183 32.1683C0.230165 31.9657 0.148867 31.7511 0.0940368 31.5291C0.0940368 31.5291 0.0635955 31.4052 0.0442238 31.2807C-0.0505593 30.6719 0.0366138 19.4729 0.0359219 16.6274C0.0359219 12.2816 0.037768 7.93616 0.0414579 3.5909C0.0414579 3.37158 0.125862 3.14189 0.213035 2.93503C0.351404 2.60294 0.486314 2.25494 0.697327 1.97059C1.00382 1.56102 1.32483 1.16113 1.81466 0.914836C2.04297 0.799989 2.25398 0.630487 2.50651 0.548158C2.71977 0.470629 2.93981 0.413186 3.16376 0.376579C5.41157 0.027196 32.8212 -0.223944 36.7052 0.362051ZM23.1588 27.2486V27.2569H30.5242C31.3634 27.2569 32.2027 27.2528 33.0412 27.2569C33.2383 27.2569 33.3241 27.2078 33.329 26.9905C33.3392 26.4309 33.2489 25.8739 33.0626 25.346C32.8093 24.6216 32.3417 23.9913 31.7218 23.5389C31.0763 23.0546 30.3333 22.773 29.5079 22.773H14.5384C13.9158 22.773 13.3727 22.5897 12.9423 22.1276C12.5916 21.7498 12.4435 21.2897 12.4428 20.7847C12.438 18.7714 12.4338 16.7574 12.4477 14.7442C12.4497 14.396 12.5009 14.0499 12.5999 13.7161C12.8026 13.0471 13.5339 12.5399 14.1849 12.5358C18.3715 12.5289 22.5576 12.5307 26.7433 12.5413C27.0734 12.5475 27.3987 12.621 27.6994 12.7572C27.9634 12.8707 28.1926 13.0521 28.3636 13.283C28.5346 13.514 28.6413 13.7861 28.6728 14.0717C28.7469 14.6542 28.7095 15.2478 28.7386 15.838C28.7621 16.3105 28.769 16.7893 28.8603 17.2507C29.0464 18.2034 29.5999 18.9326 30.361 19.5075C31.1427 20.097 32.038 20.2803 33.0004 20.243C33.2515 20.2333 33.329 20.1682 33.3283 19.9116C33.3179 17.854 33.3352 15.7958 33.3138 13.7382C33.3139 13.1951 33.2479 12.654 33.1173 12.1269C32.7471 10.7183 31.9411 9.58852 30.747 8.75208C29.8379 8.11627 28.8098 7.73783 27.7133 7.72745C24.1724 7.69563 20.6308 7.70393 17.0893 7.7233C15.6537 7.7316 14.2139 7.61468 12.7818 7.80909C12.1954 7.8927 11.6281 8.07814 11.1055 8.35703C9.7696 9.03376 8.74115 10.1933 8.22877 11.6004C7.9638 12.3019 7.8697 13.0443 7.85794 13.7866C7.83373 15.2084 7.84411 16.6308 7.85241 18.0526C7.85933 19.2868 7.86971 20.5225 7.9043 21.7567C7.92711 22.4291 8.08203 23.0904 8.36022 23.7029C8.89793 24.9519 9.85127 25.9764 11.0584 26.6024C11.7593 26.9726 12.5113 27.2341 13.3 27.2403C16.5884 27.2638 19.8739 27.2486 23.1588 27.2486Z" fill="white"/>
<path d="M51.6146 14.4109V13.8402C51.6146 11.0728 53.2979 10.2737 59.0326 10.2737C63.5123 10.2737 65.0517 10.5871 66.1662 11.757C67.0788 12.6702 67.2787 13.5558 67.2787 16.6933V23.6554H65.1956L65.2246 22.1146H65.1388C64.1405 23.5412 63.1698 23.8263 59.1467 23.8263C54.4104 23.8263 53.1554 23.6554 52.1847 22.9137C51.3289 22.2288 51.0438 21.4297 51.0438 19.8322C51.0438 17.7491 51.5572 16.7189 52.9271 16.2083C53.7261 15.8942 54.9811 15.7801 57.7776 15.7801C63.1989 15.7801 64.1115 15.9517 65.0247 17.2067H65.1956V15.7801C65.1956 14.4109 65.0531 13.8429 64.5681 13.2694C63.8264 12.3561 62.6309 12.0995 59.1758 12.0995C54.6387 12.0995 53.8396 12.4136 53.8112 14.2393V14.4109H51.6146ZM54.0361 18.0916C53.5227 18.4375 53.2661 19.0048 53.2661 19.8606C53.2661 20.8292 53.5511 21.3439 54.2928 21.6594C54.8919 21.9161 56.3185 22.0019 59.5715 22.0019C63.9938 22.0019 65.0496 21.5736 65.0496 19.8046C65.0496 18.0929 63.7946 17.6363 59.1433 17.6363C55.6377 17.6363 54.6387 17.7207 54.0395 18.0916H54.0361Z" fill="white"/>
<path d="M108.781 14.5816V14.0108C108.781 11.2434 110.464 10.4443 116.198 10.4443C120.678 10.4443 122.218 10.7584 123.332 11.9283C124.245 12.8409 124.445 13.7271 124.445 16.864V23.826H122.361L122.391 22.2853H122.307C121.308 23.7119 120.338 23.9976 116.315 23.9976C111.578 23.9976 110.323 23.826 109.353 23.0844C108.497 22.3994 108.212 21.6003 108.212 20.0029C108.212 17.9197 108.725 16.893 110.095 16.379C110.894 16.0656 112.149 15.9514 114.946 15.9514C120.367 15.9514 121.279 16.1223 122.193 17.378H122.364V15.9542C122.364 14.5843 122.221 14.0136 121.736 13.4428C120.994 12.5302 119.799 12.2736 116.344 12.2736C111.807 12.2736 111.008 12.587 110.979 14.4134V14.5843L108.781 14.5816ZM111.202 18.2622C110.689 18.6046 110.432 19.1754 110.432 20.0312C110.432 20.9998 110.717 21.5152 111.459 21.83C112.058 22.0874 113.484 22.176 116.737 22.176C121.16 22.176 122.215 21.7484 122.215 19.9793C122.215 18.267 120.96 17.8104 116.309 17.8104C112.804 17.8056 111.805 17.8914 111.205 18.2622H111.202Z" fill="white"/>
<path d="M91.8079 10.7877V17.4641C91.8079 19.9464 92.0079 20.7739 92.7765 21.4588C93.5182 22.0863 94.7448 22.343 97.1988 22.343C100.366 22.343 101.993 21.9154 102.877 20.7739C103.448 20.118 103.618 19.2331 103.618 17.3215V10.7877H105.704V23.9979H103.621V22.0296H103.506C102.451 23.7128 101.085 24.1694 96.9726 24.1694C93.7209 24.1694 92.0362 23.8235 91.0095 22.9137C90.0679 22.0835 89.7255 20.8313 89.7255 18.0923V10.7877H91.8079Z" fill="white"/>
<path d="M87.2462 23.3766L86.0188 22.5997C84.9555 23.7239 84.1176 23.8671 78.4127 23.8671C72.9118 23.8671 71.8484 23.7039 70.9283 22.7837C70.1313 21.9452 69.8448 20.3913 69.8448 16.7307C69.8448 13.3365 70.1313 11.9874 71.0514 11.1489C71.6644 10.5761 72.3597 10.392 74.0775 10.2495C74.9977 10.1886 76.3267 10.1478 77.6752 10.1478C80.5989 10.1478 83.3801 10.2495 84.2795 10.4135C85.4861 10.621 86.3855 11.4769 86.6519 12.7443C86.8767 13.7053 86.9791 15.0343 86.9791 17.0179C86.9791 18.8582 86.8767 20.228 86.6519 21.1281L88.0625 22.0275L87.2462 23.3766ZM85.0579 20.1249C85.1402 19.5313 85.2218 17.9802 85.2218 16.9141C85.2218 15.6874 85.1402 14.256 85.0378 13.5406C84.8738 12.5589 84.3625 12.1092 83.2584 11.966C82.3797 11.8435 80.3962 11.782 77.963 11.782C74.0983 11.782 72.9125 11.9452 72.3805 12.5181C71.8899 13.0086 71.7059 14.1951 71.7059 16.7916C71.7059 19.6137 71.9135 21.0652 72.3978 21.5557C72.9699 22.1486 73.7676 22.2309 78.266 22.2309C82.7236 22.2309 83.807 22.1285 84.4615 21.5972L79.0651 18.138L79.9237 16.8089L85.0579 20.1249Z" fill="white"/>
<path d="M155.804 13.7727H158.614V13.8436L153.325 25.1061H152.215L146.903 13.8436V13.7727H149.76L152.074 19.0616C152.333 19.6991 152.569 20.3839 152.782 21.2102C152.994 20.3839 153.207 19.6991 153.467 19.0616L155.804 13.7727Z" fill="#8DDCFF"/>
<path d="M163.691 25.2477C162.085 25.2477 160.692 24.8464 159.417 24.02L160.503 22.1547C161.424 22.7922 162.51 23.0991 163.526 23.0991C164.564 23.0991 165.249 22.6269 165.249 21.895C165.249 21.0922 164.376 20.6436 163.077 20.1477C161.094 19.4158 159.913 18.4714 159.913 16.7005C159.913 14.6936 161.708 13.6075 163.785 13.6075C165.108 13.6075 166.288 13.938 167.445 14.6227L166.501 16.3936C165.674 15.945 164.753 15.7325 163.998 15.7325C163.03 15.7325 162.392 16.063 162.392 16.7477C162.392 17.5033 163.171 17.8811 164.47 18.3769C166.571 19.1561 167.799 20.1005 167.799 21.8714C167.799 23.9491 166.123 25.2477 163.691 25.2477Z" fill="#8DDCFF"/>
<path d="M200.703 5.85547H223.221V11.288H206.136V28.3732H200.703V5.85547Z" fill="white"/>
<path d="M223.221 11.288L228.654 11.2881V33.8058H206.136L206.136 28.3732L223.221 28.3733L223.221 11.288Z" fill="white"/>
<path d="M248.228 17.9183V5.86621H245.922L241.768 11.8694L237.614 5.86621H235.251V17.9183H237.614V10.0205L241.049 15.0194H242.476L245.888 10.0205V17.9183H248.228Z" fill="white"/>
<path d="M256.663 5.86621H254.3V17.9183H256.663V5.86621Z" fill="white"/>
<path d="M274.546 16.7199V14.0151L272.183 14.3004V15.5558H265.096V8.21728H272.183V9.48411L274.546 9.75803V7.07598C274.546 6.39121 274.032 5.86621 273.359 5.86621H263.909C263.247 5.86621 262.733 6.39121 262.733 7.07598V16.7199C262.733 17.3933 263.247 17.9183 263.909 17.9183H273.359C274.032 17.9183 274.546 17.3819 274.546 16.7199Z" fill="white"/>
<path d="M292.43 17.9184L288.88 13.1022H291.243C291.916 13.1022 292.43 12.5772 292.43 11.9038V7.08757C292.43 6.40279 291.916 5.87779 291.243 5.87779H280.617V17.9299H282.98V13.1136H285.913L289.451 17.9299H292.43V17.9184ZM290.067 10.7397H282.98V8.21745H290.067V10.7397Z" fill="white"/>
<path d="M310.313 16.7199V7.07598C310.313 6.39121 309.799 5.86621 309.126 5.86621H299.676C299.014 5.86621 298.5 6.39121 298.5 7.07598V16.7199C298.5 17.3933 299.014 17.9183 299.676 17.9183H309.126C309.799 17.9183 310.313 17.3933 310.313 16.7199ZM307.95 15.5558H300.863V8.21728H307.95V15.5558Z" fill="white"/>
<path d="M247.052 24.105V21.7539H235.239V33.7946H237.602V28.9555H244.689V26.5816H237.602V24.105H247.052Z" fill="white"/>
<path d="M262.162 32.5949V22.951C262.162 22.2662 261.649 21.7412 260.975 21.7412H251.525C250.863 21.7412 250.35 22.2662 250.35 22.951V32.5949C250.35 33.2683 250.863 33.7933 251.525 33.7933H260.975C261.649 33.7933 262.162 33.2683 262.162 32.5949ZM259.8 31.4422H252.712V24.1037H259.8V31.4422Z" fill="white"/>
<path d="M278.21 32.5949V29.8901L275.848 30.1754V31.4308H268.76V24.0923H275.848V25.3591L278.21 25.633V22.951C278.21 22.2662 277.696 21.7412 277.023 21.7412H267.573C266.911 21.7412 266.398 22.2662 266.398 22.951V32.5949C266.398 33.2683 266.911 33.7933 267.573 33.7933H277.023C277.696 33.7933 278.21 33.2683 278.21 32.5949Z" fill="white"/>
<path d="M294.267 32.5949V21.7412H291.904V31.4308H284.817V21.7412H282.455V32.5949C282.455 33.2683 282.968 33.7933 283.63 33.7933H293.08C293.753 33.7933 294.267 33.2683 294.267 32.5949Z" fill="white"/>
<path d="M310.313 32.5962V27.7914C310.313 27.118 309.799 26.5816 309.126 26.5816H300.863V24.105H307.95V25.3718L310.313 25.6457V22.9637C310.313 22.2789 309.799 21.7539 309.126 21.7539H299.676C299.014 21.7539 298.5 22.2789 298.5 22.9637V27.7457C298.5 28.4191 299.014 28.9555 299.676 28.9555H307.962V31.4435H300.874V30.1881L298.512 29.9027V32.6076C298.512 33.281 299.025 33.806 299.687 33.806H309.137C309.799 33.7946 310.313 33.2696 310.313 32.5962Z" fill="white"/>
<path d="M312.962 5.113C314.366 5.113 315.518 3.96029 315.518 2.5565C315.518 1.15271 314.366 0 312.962 0C311.547 0 310.405 1.15271 310.405 2.5565C310.405 3.96029 311.558 5.113 312.962 5.113ZM312.962 4.62224C311.889 4.62224 311.033 3.75486 311.033 2.5565C311.033 1.35814 311.901 0.490759 312.962 0.490759C314.035 0.490759 314.891 1.35814 314.891 2.5565C314.891 3.75486 314.035 4.62224 312.962 4.62224ZM311.98 3.99453H312.517V2.75052H312.848L313.601 3.99453H314.149L313.373 2.72769C313.852 2.68204 314.126 2.44237 314.126 1.95161C314.126 1.34673 313.749 1.10706 313.053 1.10706H311.98V3.99453ZM312.517 1.50651H312.996C313.27 1.50651 313.59 1.56357 313.59 1.90596C313.59 2.294 313.316 2.33965 312.996 2.33965H312.517V1.50651Z" fill="white"/>
</svg>
